<svg width="800" height="800" viewBox="0 0 800 800" fill="none" xmlns="http://www.w3.org/2000/svg">
<rect width="800" height="800" rx="150" fill="#FF00DD"/>
<path d="M208.067 174.267C207.533 175.733 206.6 181.733 205.933 187.467C205.267 193.333 204.2 200.8 203.4 204.267C201.533 212.4 199.533 225.067 197.133 242.667C196.2 250.4 194.467 263.2 193.4 271.333C192.333 279.333 190.467 292.933 189.4 301.333C185 334.133 181.133 360.667 179.133 370.133C178.467 373.733 176.867 384.267 175.8 393.467C174.733 402.533 172.867 416.267 171.933 424C170.867 431.733 169.133 444.933 168.067 453.333C166.867 461.733 165 474.667 163.933 482C162.733 489.333 161.267 499.467 160.6 504.667C159.933 509.733 158.733 516.667 157.933 520C156.467 526.4 155.133 536.667 151.933 564.667C150.867 574.133 149.4 585.867 148.733 590.667C147.933 595.467 146.733 604.4 145.933 610.667C145.267 616.933 144.333 623.333 143.8 624.933L143 628H164.333C183.4 628 185.8 627.733 186.6 625.6C187.133 624.4 188.333 615.867 189.4 606.667C190.467 597.467 192.333 583.067 193.4 574.667C194.467 566.267 196.2 552.133 197.267 543.333C200.2 517.867 203 498.133 203.8 496C204.2 494.933 205.533 485.867 206.6 476C208.867 456.667 211.4 435.333 214.467 410.667C215.533 402.267 217.4 387.867 218.467 378.667C222.733 343.2 223.4 339.067 225.267 330.4C226.333 325.467 227.267 319.067 227.267 316.133C227.267 313.067 227.8 308.133 228.6 305.067C229.267 301.867 230.333 295.2 230.867 290.133L231.933 280.933L240.867 290.133C245.667 295.2 251.4 301.467 253.533 304.133C257.533 309.2 270.2 323.333 285.267 339.867C290.467 345.467 298.467 354.533 303.267 360C308.067 365.467 317.933 376.533 325.4 384.667L338.867 399.333L400.867 399.733L462.867 400L477.667 383.733C485.933 374.667 497.267 362 502.867 355.467C508.6 348.933 515.933 340.933 519.133 337.467C522.333 334.133 528.467 326.933 532.867 321.6C537.267 316.4 541.267 312 541.8 312C542.467 312 545.8 308.267 549.4 303.733C553 299.067 558.6 292.8 561.933 289.733L567.933 284.133L569 287.733C569.667 289.733 571 298.8 572.067 308C573 317.2 574.733 331.6 575.8 340C576.867 348.4 578.733 363.067 579.8 372.667C580.867 382.133 582.467 393.333 583.133 397.333C586.067 412.8 587.533 422.667 589.4 441.333C593.8 483.6 599.667 532 601.933 545.467C603.267 552.667 605.667 570.8 609.267 599.333C610.333 607.333 611.533 617.2 612.067 620.933L613 628H634.733H656.6L656.467 624.267C656.467 620.667 655.667 614.933 651.933 588.667C650.867 581.333 649.4 570.8 648.733 565.333C647.933 559.867 646.733 552.4 645.8 548.667C645 545.067 643.533 535.067 642.333 526.667C640.333 510.533 637.933 492.533 634.733 469.333C630.2 436.4 629.933 434.667 623.933 398.667C621.933 386.667 621.8 385.867 618.6 360.667C617.4 351.867 616.333 342.8 615.933 340.667C615.4 336.533 612.333 314 609.933 295.333C609.267 289.467 607.667 280.667 606.6 275.733C605.533 270.8 604.6 264.8 604.6 262.267C604.6 259.733 604.067 256 603.267 253.867C602.6 251.733 601.4 244.933 600.6 238.667C599.8 232.4 598.333 220.667 597.267 212.667C596.067 204.533 594.467 192.133 593.533 185.067L591.933 172L581.933 183.333C576.467 189.6 571.667 195.467 571.4 196.4C571.133 197.333 567.667 201.333 563.8 205.333C559.933 209.333 553.933 216.4 550.333 220.933C546.867 225.467 540.067 233.467 535.4 238.933C530.733 244.267 525.667 250.133 524.067 252C515 262.667 503.133 276.933 494.2 287.733C488.6 294.533 481.4 302.933 478.2 306.4C475 309.867 469.933 316 466.867 320C463.8 324 459.133 329.467 456.467 332C453.933 334.533 449.933 339.333 447.667 342.667C445.4 346 440.6 351.6 437 355.333C433.4 358.933 429.533 363.467 428.467 365.333C427.267 367.2 422.733 372.667 418.467 377.6C414.067 382.4 408.333 389.2 405.533 392.533L400.333 398.8L395.533 393.467C392.733 390.533 385.133 381.733 378.333 373.733C371.667 365.867 357.533 349.067 347 336.667C336.333 324.133 326.467 312.533 324.867 310.667C323.4 308.8 318.733 303.467 314.733 298.667C310.6 293.867 304.333 286.4 300.867 282C297.4 277.733 291.667 270.667 287.933 266.4C284.333 262.133 276.467 252.933 270.6 245.867C264.733 238.8 255.4 227.867 249.933 221.467C244.467 215.067 237.533 206.933 234.6 203.333C231.667 199.733 226.6 193.733 223.267 190C214.067 179.467 211.667 176.533 210.2 174C209 171.733 208.867 171.733 208.067 174.267Z" fill="black"/>
<path d="M309.4 452C309 453.867 308.067 461.867 307.267 470C306.6 478 305.267 489.467 304.467 495.333C301.933 512.8 299.267 511.333 333.133 511.733C351.533 511.867 362.867 511.6 363.8 510.667C364.6 509.867 362.067 506.133 355.8 499.6C347.267 490.533 321.667 462.133 313.667 452.8L310.2 448.667L309.4 452Z" fill="black"/>
<path d="M479.8 457.6C475.4 462.267 469.4 468.933 466.467 472.667C463.667 476.267 458.6 482.133 455.267 485.467C444.2 496.8 432.733 510.267 433.533 511.2C434.867 512.4 491.667 512.133 493.8 510.8C494.733 510.133 495.133 508.933 494.6 508C494.067 507.2 492.733 496.667 491.667 484.933C490.6 473.067 489.4 460.133 488.867 456.267L487.933 449.2L479.8 457.6Z" fill="black"/>
<path d="M369.267 513.2C368.867 514 372.067 518.267 376.333 522.933C380.6 527.6 387.4 534.8 391.267 538.933C395.133 543.2 398.733 546.667 399.267 546.667C401.133 546.667 429.933 514.533 429.267 513.333C428.2 511.6 370.333 511.6 369.267 513.2Z" fill="black"/>
<path d="M388.867 559.733C372.867 577.067 368.6 582.133 368.6 583.867C368.6 584.933 377.267 585.333 398.6 585.333C422.333 585.333 428.6 584.933 428.6 583.6C428.6 581.467 414.333 564 412.733 564C412.067 564 408.867 560.4 405.533 556.133L399.667 548.133L388.867 559.733Z" fill="black"/>
</svg>
