<svg width="1147" height="230" viewBox="0 0 1147 230" fill="none" xmlns="http://www.w3.org/2000/svg">
<path d="M602.133 4.15872C599.467 8.29205 590.667 17.2254 587.867 18.4254C587.2 18.692 586.933 51.8921 587.333 96.9587C587.733 139.892 587.733 176.292 587.467 177.892C587.2 180.292 586 180.959 581.733 181.225C576.667 181.625 576.267 181.892 573.867 188.292C572.533 192.025 569.467 196.559 567.067 198.692L562.667 202.425L585.333 202.025L608 201.625L608.667 180.292C609.067 168.559 609.733 158.292 610.267 157.492C610.8 156.692 613.067 155.225 615.333 154.292C620.133 152.292 624.133 153.759 627.333 158.692C628.933 161.225 630 177.359 630 200.159C630 202.025 632.267 202.292 647.2 202.292H664.4L665.2 206.559C666.533 212.959 672 220.425 678.4 224.559C683.2 227.759 685.333 228.292 694 228.292C702.667 228.292 704.8 227.759 709.733 224.559C716.133 220.425 722.8 211.892 724 206.159C724.8 202.425 725.2 202.292 732.533 202.292H740.267L741.733 207.359C743.867 214.292 751.067 222.425 758.667 226.159C774.667 234.159 796.667 223.759 800.133 206.559C800.933 202.425 801.2 202.292 808 202.292H814.933L817.333 208.559C827.6 236.292 866 235.092 875.333 206.825L876.933 202.292H885.733H894.667L908.267 215.892L921.867 229.492L935.733 215.892L949.467 202.292H1002.4C1031.47 202.292 1055.33 202.025 1055.33 201.759C1055.33 201.492 1053.33 199.225 1050.8 196.559C1048.27 193.892 1045.73 189.492 1045.07 186.692C1044 181.892 1043.6 181.625 1038 180.959L1032 180.292L1031.6 130.959C1031.47 103.892 1030.8 81.2254 1030.13 80.5587C1029.6 80.0254 1027.07 82.5587 1024.67 86.2921C1022.27 90.1587 1017.73 94.8254 1014.8 96.6921C1011.73 98.5587 1009.07 100.292 1008.8 100.559C1008.53 100.692 1009.07 101.759 1010 102.959C1012.53 106.025 1010.67 108.559 1005.2 109.625C992 112.025 979.2 122.692 972.267 136.959C968.267 145.092 968 146.692 967.6 163.225L967.067 180.959H959.867H952.667V144.292C952.667 121.759 952.133 107.625 951.333 107.625C950.667 107.625 948.133 110.559 945.867 114.159C943.467 117.759 938.933 122.425 935.733 124.425C929.867 128.025 928.933 129.492 931.333 130.959C932.133 131.492 932.667 143.225 932.667 161.892V191.892L927.2 197.359L921.733 202.825L916.933 196.959L912 191.092L911.333 136.025C910.933 101.492 910.133 80.8254 909.333 80.5587C908.667 80.4254 907.2 82.0254 906.133 84.1587C903.867 89.0921 893.067 99.6254 890.533 99.6254C889.067 99.6254 888.933 100.159 890 102.159C890.8 103.759 891.333 119.225 891.333 142.959V181.092L884.4 180.692L877.333 180.292L876.667 154.292C876 130.559 875.733 127.892 873.067 123.625C865.067 110.692 852.4 106.025 836.8 110.292C829.333 112.292 820.8 121.092 817.6 129.759C815.733 134.959 815.333 140.692 815.333 158.692V181.092L808.4 180.692L801.333 180.292L800.933 170.559C800.533 159.092 799.067 158.425 793.333 167.359C791.2 170.825 786.8 175.359 783.6 177.359C779.467 180.159 778.133 181.625 779.2 182.692C781.067 184.559 781.067 198.559 779.2 202.825C777.2 206.959 771.067 209.359 766.533 207.625C760 205.092 759.2 200.159 759.6 163.225L760 129.625L772.667 128.959L785.333 128.292V118.292V108.292L773.6 108.159C764.933 108.159 761.467 107.625 760.533 106.159C759.867 105.092 759.333 89.0921 759.333 70.5587C759.333 49.3587 758.8 36.9587 758 36.9587C757.333 36.9587 755.2 39.2254 753.467 42.0254C750.4 46.9587 741.6 55.6254 739.6 55.6254C739.067 55.6254 738.8 83.7587 739.067 118.292L739.467 180.959H732.667H726L725.867 174.559C725.867 171.092 725.333 159.225 724.933 148.159C724 129.359 723.733 127.759 720.4 122.692C713.067 111.625 701.867 106.959 688.267 109.492C680.133 110.959 671.867 117.625 667.733 126.025C664.133 133.359 664 134.559 663.6 157.225L663.067 180.959H656.533H650V171.225C650 159.625 647.733 150.959 642.933 144.692L639.467 140.159L642.933 135.092C648.133 127.225 650 118.292 650 99.2254C650 84.4254 649.733 82.1587 647.733 81.3587C646.533 80.8254 645.333 81.0921 644.933 82.0254C643.733 85.8921 638.133 92.5587 633.067 96.2921C628.4 99.6254 627.733 100.825 628.4 103.625C630 109.625 628.8 119.759 626 123.625C623.467 127.092 618.4 130.159 611.733 132.292L608.667 133.092L608.4 66.8254C608.133 18.692 607.6 0.425385 606.533 0.0253906C605.6 -0.241287 603.733 1.62538 602.133 4.15872ZM1011.33 155.092V181.092L999.733 180.692L988 180.292L987.6 168.959C986.933 153.625 988.933 145.359 994.8 138.425C999.467 132.959 1008.4 127.359 1010.4 128.559C1010.93 128.825 1011.33 140.825 1011.33 155.092ZM701.333 132.292L704.667 135.492V168.559C704.667 197.892 704.4 201.892 702.267 204.559C698.133 209.625 688.933 208.825 686.267 202.959C685.2 200.559 684.667 189.092 684.667 167.492V135.492L688 132.292C689.733 130.425 692.8 128.959 694.667 128.959C696.533 128.959 699.6 130.425 701.333 132.292ZM852.8 131.492C856 134.025 856 134.292 856.4 166.425C856.667 188.559 856.267 199.892 855.333 202.425C852.667 208.692 843.2 210.025 838.533 204.692C836.267 202.292 836 199.225 836 168.692V135.359L839.733 132.159C844.267 128.292 848.667 128.025 852.8 131.492Z" fill="white"/>
<path d="M20.1333 42.5586C16.9333 47.6253 12 52.1586 6.13333 55.6253C4.8 56.4253 4.66667 57.2253 5.86667 59.3586C6.93333 61.3586 7.2 79.7586 7.06667 121.225L6.66667 180.159L3.33333 180.959C0.133333 181.759 0 182.159 0 191.625C0 201.492 0 201.625 3.6 202.025C6.26667 202.292 7.6 203.492 8.66667 206.959C11.3333 214.959 17.7333 222.292 25.0667 225.759C41.7333 233.492 59.0667 226.559 66.1333 209.625L69.2 202.292H114.533H160L162.933 208.692C168.933 221.892 179.2 228.959 192 228.959C204.533 228.959 215.2 221.225 220 208.425L222.4 202.292H229.333H236.267L238.667 208.292C241.867 216.825 246.8 222.159 254.667 225.759C271.2 233.492 288.8 226.425 295.2 209.492L297.733 202.959L305.067 202.559C312.267 202.159 312.267 202.159 313.2 206.559C314.533 212.959 319.867 220.425 326.4 224.559C331.2 227.759 333.333 228.292 342 228.292C350.667 228.292 352.8 227.759 357.733 224.559C364.133 220.425 370.8 211.892 372 206.159C372.8 202.425 373.2 202.292 380.533 202.292H388.133L389.733 208.159C392.8 219.892 405.067 228.959 417.467 228.959C430.533 228.959 444.267 218.959 447.467 207.225L448.8 202.292H461.6H474.4L469.733 197.759C465.6 193.759 463.867 190.692 461.467 183.359C461.067 181.759 459.067 180.959 455.067 180.692L449.333 180.292L448.667 154.159C448 128.559 448 128.025 444.4 122.692C442.4 119.625 438.533 115.492 435.867 113.359C431.2 109.892 430 109.625 419.2 109.625C408.267 109.625 407.2 109.892 401.733 113.759C398 116.559 394.533 120.692 392 125.759C388 133.359 388 133.759 387.6 157.225L387.2 180.959H380.533H374V159.892C374 130.425 370.933 120.559 359.467 112.959C353.733 109.092 340.8 107.759 333.333 110.292C326.533 112.559 318.133 120.425 314.8 127.625C312.4 132.825 312 136.825 311.6 157.225L311.067 180.959H304.533H298V170.959C298 158.959 296.533 158.159 290.267 166.959C288 170.292 283.733 174.559 280.8 176.559C277.067 179.092 275.733 180.959 276.267 182.292C276.8 183.359 277.333 187.625 277.6 191.625C278.4 203.892 272.533 210.292 263.2 207.225C257.2 205.359 256.667 202.025 256.667 164.292V129.092L269.067 128.692L281.333 128.292L281.733 119.092C282 113.359 281.6 109.492 280.667 108.959C279.867 108.425 274.933 108.159 269.867 108.425C264.667 108.692 259.6 108.425 258.533 108.025C256.933 107.492 256.667 101.359 256.667 72.1586C256.667 42.692 256.4 36.9586 254.8 36.9586C253.733 36.9586 251.6 38.9586 250.133 41.492C247.067 46.292 238.267 54.8253 235.2 55.892C233.6 56.4253 233.6 57.092 235.067 59.7586C236.4 62.292 236.667 76.1586 236.4 121.625L236 180.292L229.067 180.692L222 181.092V171.092C222 163.092 221.6 160.959 220 160.959C218.933 160.959 217.2 162.692 216.133 164.692C214.133 168.559 205.733 176.825 201.333 179.225C199.333 180.425 199.333 181.092 200.667 183.625C203.2 188.292 201.733 201.759 198.4 205.092C194.8 208.825 187.867 208.825 184.267 205.092C181.467 202.292 181.333 201.225 180.933 165.625L180.533 129.092L192.933 128.692L205.333 128.292V118.292V108.292L194.667 108.159C188.8 108.159 183.2 108.025 182.4 107.892C181.067 107.625 180.667 99.492 180.667 72.292C180.667 42.0253 180.4 36.9586 178.667 36.9586C177.6 36.9586 175.733 38.8253 174.533 41.2253C171.733 46.5586 164.533 53.7586 160.667 54.9586C158.533 55.6253 158.133 56.4253 158.933 58.0253C159.467 59.3586 160 87.2253 160 120.292V180.292L153.733 180.692L147.333 181.092V131.092C147.333 100.425 146.8 80.8253 146 80.292C145.333 79.892 143.333 81.892 141.467 84.692C138.4 89.7586 127.867 99.6253 125.867 99.6253C125.333 99.6253 125.2 101.625 125.6 104.159C126.267 108.425 126.133 108.692 121.2 109.625C108 112.025 94.4 123.092 87.7333 136.692C84.4 143.625 84 146.025 83.3333 162.292L82.6667 180.292L75.7333 180.692L68.6667 181.092V171.092C68.6667 158.959 67.2 158.159 60.9333 166.959C58.6667 170.292 54.4 174.559 51.4667 176.559C47.7333 179.092 46.4 180.959 46.9333 182.292C47.4667 183.359 48 187.625 48.2667 191.625C48.8 200.292 45.3333 207.492 40.4 207.759C34.9333 208.025 33.3333 207.492 30.4 204.159C27.3333 200.825 27.3333 200.292 27.3333 164.959V129.092L39.7333 128.692L52 128.292V118.292V108.292L43.3333 108.159C38.5333 108.025 33.0667 107.892 31.0667 107.759L27.3333 107.625V72.292C27.3333 33.3586 26.9333 31.892 20.1333 42.5586ZM126 154.292V180.959H114.667H103.333V165.892C103.333 150.425 104.933 144.559 110.933 137.359C112.8 135.092 124 127.759 125.733 127.625C125.867 127.625 126 139.625 126 154.292ZM349.333 132.292L352.667 135.492V168.692C352.667 198.425 352.4 202.292 350.4 204.692C346.667 209.092 339.467 209.092 335.333 204.692C332.8 201.892 332.667 200.159 332.667 168.692V135.492L336 132.292C337.733 130.425 340.8 128.959 342.667 128.959C344.533 128.959 347.6 130.425 349.333 132.292ZM425.333 132.292L428.667 135.492V167.625C428.667 193.225 428.267 200.559 426.667 203.492C423.2 210.425 413.467 209.625 409.6 202.292C407.467 198.159 407.333 194.159 407.6 166.559L408 135.359L411.733 132.159C416.533 128.025 421.2 128.025 425.333 132.292Z" fill="white"/>
<path d="M480.667 212.959V223.625H522H563.467L563.067 213.225L562.667 202.959L521.733 202.559L480.667 202.292V212.959Z" fill="white"/>
<path d="M1063.33 212.959V223.625H1104.67H1146.13L1145.73 213.225L1145.33 202.959L1104.4 202.559L1063.33 202.292V212.959Z" fill="white"/>
</svg>
