<svg width="1147" height="744" viewBox="0 0 1147 744" fill="none" xmlns="http://www.w3.org/2000/svg">
<path d="M372.08 2.28742C371.547 3.76753 370.614 9.8225 369.947 15.6084C369.28 21.5288 368.213 29.0639 367.413 32.5623C365.546 40.7701 363.545 53.5529 361.145 71.3141C360.211 79.1183 358.478 92.0356 357.411 100.243C356.344 108.317 354.477 122.041 353.41 130.518C349.009 163.619 345.141 190.395 343.141 199.949C342.474 203.582 340.874 214.211 339.807 223.496C338.74 232.646 336.873 246.505 335.939 254.309C334.873 262.113 333.139 275.434 332.072 283.911C330.872 292.388 329.005 305.44 327.938 312.84C326.738 320.241 325.271 330.467 324.604 335.715C323.937 340.828 322.737 347.825 321.937 351.188C320.47 357.647 319.136 368.008 315.935 396.264C314.868 405.818 313.401 417.659 312.735 422.503C311.934 427.347 310.734 436.362 309.934 442.686C309.267 449.01 308.334 455.469 307.8 457.083L307 460.178H328.338C347.409 460.178 349.809 459.909 350.609 457.756C351.143 456.545 352.343 447.933 353.41 438.649C354.477 429.365 356.344 414.833 357.411 406.356C358.478 397.879 360.211 383.616 361.278 374.736C364.212 349.036 367.013 329.121 367.813 326.969C368.213 325.892 369.547 316.742 370.614 306.785C372.881 287.275 375.415 265.746 378.482 240.853C379.549 232.376 381.416 217.844 382.483 208.56C386.75 172.769 387.417 168.597 389.284 159.851C390.351 154.873 391.285 148.414 391.285 145.454C391.285 142.359 391.818 137.381 392.618 134.286C393.285 131.057 394.352 124.329 394.885 119.216L395.952 109.931L404.887 119.216C409.688 124.329 415.423 130.653 417.557 133.344C421.558 138.457 434.227 152.72 449.297 169.405C454.498 175.056 462.5 184.206 467.301 189.722C472.102 195.239 481.97 206.407 489.439 214.615L502.908 229.416L564.921 229.82L626.935 230.089L641.738 213.673C650.006 204.524 661.342 191.741 666.943 185.148C672.678 178.554 680.013 170.481 683.213 166.983C686.414 163.619 692.548 156.353 696.949 150.971C701.35 145.723 705.351 141.283 705.885 141.283C706.551 141.283 709.886 137.515 713.486 132.94C717.087 128.231 722.688 121.907 726.022 118.812L732.024 113.161L733.09 116.794C733.757 118.812 735.091 127.962 736.158 137.246C737.091 146.53 738.825 161.062 739.892 169.539C740.959 178.016 742.826 192.817 743.893 202.505C744.96 212.059 746.56 223.361 747.227 227.398C750.161 243.006 751.628 252.963 753.495 271.801C757.896 314.455 763.764 363.298 766.031 376.888C767.364 384.154 769.765 402.454 773.366 431.249C774.433 439.322 775.633 449.279 776.166 453.047L777.1 460.178H798.838H820.709L820.576 456.41C820.576 452.777 819.775 446.992 816.041 420.484C814.974 413.084 813.507 402.454 812.841 396.937C812.041 391.42 810.84 383.885 809.907 380.118C809.107 376.485 807.64 366.393 806.439 357.916C804.439 341.635 802.038 323.47 798.838 300.058C794.303 266.822 794.037 265.073 788.035 228.743C786.035 216.633 785.902 215.826 782.701 190.395C781.501 181.515 780.434 172.365 780.034 170.212C779.5 166.041 776.433 143.301 774.032 124.463C773.366 118.543 771.765 109.662 770.698 104.684C769.632 99.7052 768.698 93.6502 768.698 91.0937C768.698 88.5372 768.165 84.7696 767.364 82.6167C766.698 80.4639 765.497 73.6016 764.697 67.2775C763.897 60.9534 762.43 49.1126 761.363 41.0393C760.163 32.8314 758.563 20.3178 757.629 13.1864L756.029 -9.59635e-06L746.027 11.4372C740.559 17.7612 735.758 23.6817 735.491 24.6235C735.224 25.5654 731.757 29.6021 727.889 33.6387C724.022 37.6754 718.021 44.8068 714.42 49.3817C710.952 53.9565 704.151 62.0298 699.483 67.5466C694.816 72.9288 689.748 78.8492 688.148 80.733C679.079 91.4974 667.21 105.895 658.275 116.794C652.673 123.656 645.472 132.133 642.271 135.631C639.07 139.13 634.003 145.319 630.935 149.356C627.868 153.393 623.2 158.909 620.533 161.466C617.999 164.022 613.998 168.866 611.731 172.23C609.464 175.594 604.663 181.246 601.062 185.013C597.462 188.646 593.594 193.221 592.527 195.105C591.327 196.988 586.793 202.505 582.525 207.484C578.124 212.328 572.39 219.19 569.589 222.554L564.388 228.878L559.587 223.496C556.786 220.536 549.185 211.655 542.383 203.582C535.715 195.643 521.579 178.689 511.043 166.175C500.374 153.527 490.506 141.821 488.905 139.937C487.438 138.053 482.771 132.671 478.77 127.827C474.636 122.983 468.368 115.448 464.9 111.008C461.433 106.702 455.698 99.5707 451.964 95.2649C448.363 90.9591 440.495 81.6749 434.627 74.5434C428.759 67.412 419.424 56.3785 413.956 49.9199C408.488 43.4612 401.553 35.2534 398.619 31.6204C395.685 27.9874 390.618 21.9325 387.284 18.1649C378.082 7.53507 375.681 4.57486 374.214 2.01831C373.014 -0.26912 372.881 -0.26912 372.08 2.28742Z" fill="#8B5CF6"/>
<path d="M473.435 282.565C473.035 284.449 472.102 292.522 471.302 300.73C470.635 308.804 469.301 320.375 468.501 326.296C465.967 343.922 463.3 342.442 497.174 342.846C515.578 342.981 526.913 342.711 527.847 341.77C528.647 340.962 526.113 337.195 519.845 330.602C511.31 321.452 485.705 292.792 477.703 283.373L474.235 279.202L473.435 282.565Z" fill="#8B5CF6"/>
<path d="M643.871 288.217C639.471 292.926 633.469 299.654 630.535 303.421C627.735 307.054 622.667 312.975 619.333 316.339C608.264 327.776 596.795 341.366 597.595 342.308C598.929 343.519 655.741 343.25 657.874 341.904C658.808 341.231 659.208 340.02 658.675 339.079C658.141 338.271 656.808 327.641 655.741 315.8C654.674 303.825 653.473 290.773 652.94 286.871L652.006 279.74L643.871 288.217Z" fill="#8B5CF6"/>
<path d="M533.315 344.326C532.915 345.134 536.115 349.439 540.383 354.149C544.65 358.858 551.452 366.124 555.319 370.295C559.187 374.601 562.788 378.099 563.321 378.099C565.188 378.099 593.994 345.672 593.327 344.461C592.261 342.712 534.382 342.712 533.315 344.326Z" fill="#8B5CF6"/>
<path d="M552.919 391.286C536.915 408.778 532.648 413.891 532.648 415.64C532.648 416.717 541.316 417.12 562.654 417.12C586.393 417.12 592.661 416.717 592.661 415.371C592.661 413.218 578.391 395.592 576.791 395.592C576.124 395.592 572.923 391.959 569.589 387.653L563.721 379.58L552.919 391.286Z" fill="#8B5CF6"/>
<path d="M602.261 516.046C599.594 520.217 590.792 529.232 587.991 530.443C587.325 530.712 587.058 564.217 587.458 609.696C587.858 653.023 587.858 689.756 587.591 691.371C587.325 693.793 586.124 694.466 581.857 694.735C576.789 695.139 576.389 695.408 573.989 701.866C572.655 705.634 569.588 710.209 567.187 712.362L562.786 716.129L585.458 715.726L608.129 715.322L608.796 693.793C609.196 681.952 609.863 671.591 610.396 670.784C610.93 669.977 613.197 668.497 615.464 667.555C620.265 665.537 624.266 667.017 627.467 671.995C629.067 674.552 630.134 690.833 630.134 713.842C630.134 715.726 632.401 715.995 647.337 715.995H664.541L665.341 720.3C666.675 726.759 672.143 734.294 678.544 738.465C683.345 741.695 685.479 742.233 694.147 742.233C702.816 742.233 704.95 741.695 709.884 738.465C716.285 734.294 722.953 725.683 724.154 719.897C724.954 716.129 725.354 715.995 732.689 715.995H740.424L741.891 721.108C744.025 728.105 751.226 736.312 758.828 740.08C774.831 748.153 796.836 737.658 800.303 720.3C801.103 716.129 801.37 715.995 808.172 715.995H815.106L817.507 722.319C827.776 750.306 866.184 749.095 875.519 720.57L877.12 715.995H885.921H894.857L908.459 729.719L922.062 743.444L935.932 729.719L949.668 715.995H1002.61C1031.69 715.995 1055.56 715.726 1055.56 715.456C1055.56 715.187 1053.56 712.9 1051.02 710.209C1048.49 707.518 1045.96 703.077 1045.29 700.252C1044.22 695.408 1043.82 695.139 1038.22 694.466L1032.22 693.793L1031.82 644.008C1031.69 616.693 1031.02 593.819 1030.35 593.146C1029.82 592.608 1027.28 595.164 1024.88 598.932C1022.48 602.834 1017.95 607.543 1015.02 609.427C1011.95 611.311 1009.28 613.06 1009.01 613.329C1008.75 613.464 1009.28 614.54 1010.21 615.751C1012.75 618.846 1010.88 621.402 1005.41 622.479C992.211 624.901 979.408 635.665 972.473 650.063C968.472 658.271 968.206 659.885 967.805 676.57L967.272 694.466H960.07H952.869V657.463C952.869 634.723 952.335 620.461 951.535 620.461C950.868 620.461 948.335 623.421 946.067 627.054C943.667 630.687 939.133 635.396 935.932 637.415C930.064 641.048 929.131 642.528 931.531 644.008C932.331 644.546 932.865 656.387 932.865 675.224V705.499L927.397 711.016L921.929 716.533L917.128 710.612L912.194 704.692L911.527 649.121C911.127 614.271 910.327 593.415 909.526 593.146C908.86 593.011 907.393 594.626 906.326 596.779C904.059 601.757 893.256 612.387 890.722 612.387C889.255 612.387 889.122 612.926 890.189 614.944C890.989 616.558 891.523 632.167 891.523 656.118V694.6L884.588 694.197L877.52 693.793L876.853 667.555C876.186 643.604 875.919 640.913 873.252 636.607C865.25 623.555 852.581 618.846 836.978 623.152C829.509 625.17 820.974 634.051 817.774 642.797C815.907 648.044 815.506 653.83 815.506 671.995V694.6L808.572 694.197L801.503 693.793L801.103 683.971C800.703 672.399 799.236 671.726 793.502 680.741C791.368 684.24 786.967 688.815 783.766 690.833C779.632 693.659 778.299 695.139 779.365 696.215C781.232 698.099 781.232 712.227 779.365 716.533C777.365 720.704 771.23 723.126 766.696 721.377C760.161 718.82 759.361 713.842 759.761 676.57L760.161 642.662L772.831 641.989L785.5 641.317V631.225V621.133L773.764 620.999C765.096 620.999 761.628 620.461 760.695 618.98C760.028 617.904 759.495 601.757 759.495 583.054C759.495 561.66 758.961 549.146 758.161 549.146C757.494 549.146 755.36 551.434 753.627 554.26C750.559 559.238 741.757 567.984 739.757 567.984C739.224 567.984 738.957 596.375 739.224 631.225L739.624 694.466H732.822H726.154L726.021 688.007C726.021 684.509 725.487 672.533 725.087 661.365C724.154 642.393 723.887 640.778 720.553 635.665C713.218 624.497 702.016 619.788 688.413 622.344C680.278 623.824 672.009 630.552 667.875 639.029C664.274 646.43 664.141 647.641 663.741 670.515L663.207 694.466H656.673H650.138V684.643C650.138 672.937 647.871 664.191 643.07 657.867L639.602 653.292L643.07 648.179C648.271 640.24 650.138 631.225 650.138 611.984C650.138 597.048 649.871 594.761 647.871 593.953C646.671 593.415 645.47 593.684 645.07 594.626C643.87 598.528 638.269 605.256 633.201 609.023C628.533 612.387 627.867 613.598 628.533 616.424C630.134 622.479 628.934 632.705 626.133 636.607C623.599 640.106 618.531 643.2 611.863 645.353L608.796 646.161L608.529 579.287C608.262 530.712 607.729 512.278 606.662 511.875C605.729 511.606 603.862 513.489 602.261 516.046ZM1011.55 668.362V694.6L999.946 694.197L988.21 693.793L987.81 682.356C987.143 666.882 989.143 658.54 995.011 651.543C999.679 646.026 1008.61 640.375 1010.61 641.586C1011.15 641.855 1011.55 653.965 1011.55 668.362ZM701.482 645.353L704.816 648.583V681.952C704.816 711.554 704.55 715.591 702.416 718.282C698.282 723.395 689.08 722.588 686.412 716.667C685.345 714.245 684.812 702.674 684.812 680.876V648.583L688.146 645.353C689.88 643.469 692.947 641.989 694.814 641.989C696.681 641.989 699.749 643.469 701.482 645.353ZM852.981 644.546C856.182 647.102 856.182 647.372 856.582 679.799C856.849 702.135 856.448 713.573 855.515 716.129C852.848 722.453 843.379 723.799 838.711 718.417C836.444 715.995 836.177 712.9 836.177 682.087V648.448L839.912 645.219C844.446 641.317 848.847 641.048 852.981 644.546Z" fill="#8B5CF6"/>
<path d="M20.1376 554.798C16.9369 559.911 12.0026 564.486 6.13465 567.984C4.80103 568.792 4.66767 569.599 5.86792 571.752C6.93482 573.77 7.20154 592.339 7.06818 634.185L6.66809 693.659L3.33405 694.466C0.133374 695.273 1.28746e-05 695.677 1.28746e-05 705.23C1.28746e-05 715.187 1.28746e-05 715.322 3.60078 715.726C6.26801 715.995 7.60163 717.206 8.66852 720.704C11.3358 728.777 17.7371 736.178 25.072 739.676C41.7422 747.481 59.0792 740.484 66.1474 723.395L69.2147 715.995H114.558H160.034L162.968 722.453C168.969 735.774 179.238 742.906 192.041 742.906C204.577 742.906 215.246 735.101 220.047 722.184L222.447 715.995H229.382H236.317L238.717 722.05C241.918 730.661 246.852 736.043 254.721 739.676C271.258 747.481 288.861 740.349 295.263 723.261L297.797 716.667L305.131 716.264C312.333 715.86 312.333 715.86 313.266 720.3C314.6 726.759 319.935 734.294 326.469 738.465C331.27 741.695 333.404 742.233 342.073 742.233C350.741 742.233 352.875 741.695 357.809 738.465C364.211 734.294 370.879 725.683 372.079 719.897C372.879 716.129 373.279 715.995 380.614 715.995H388.216L389.816 721.915C392.883 733.756 405.153 742.906 417.555 742.906C430.625 742.906 444.361 732.814 447.562 720.973L448.895 715.995H461.698H474.501L469.833 711.42C465.699 707.383 463.965 704.288 461.565 696.888C461.165 695.273 459.164 694.466 455.163 694.197L449.429 693.793L448.762 667.42C448.095 641.586 448.095 641.048 444.494 635.665C442.494 632.571 438.626 628.399 435.959 626.246C431.292 622.748 430.091 622.479 419.289 622.479C408.353 622.479 407.286 622.748 401.819 626.65C398.084 629.476 394.617 633.647 392.083 638.76C388.082 646.43 388.082 646.833 387.682 670.515L387.282 694.466H380.614H374.079V673.206C374.079 643.47 371.012 633.512 359.543 625.843C353.808 621.941 340.872 620.595 333.404 623.152C326.603 625.439 318.201 633.378 314.867 640.644C312.466 645.892 312.066 649.928 311.666 670.515L311.133 694.466H304.598H298.063V684.374C298.063 672.264 296.596 671.457 290.328 680.338C288.061 683.701 283.794 688.007 280.86 690.026C277.125 692.582 275.792 694.466 276.325 695.811C276.859 696.888 277.392 701.194 277.659 705.23C278.459 717.609 272.591 724.068 263.256 720.973C257.255 719.089 256.721 715.726 256.721 677.646V642.124L269.124 641.72L281.393 641.317L281.793 632.032C282.06 626.246 281.66 622.344 280.726 621.806C279.926 621.268 274.992 620.999 269.924 621.268C264.723 621.537 259.655 621.268 258.588 620.864C256.988 620.326 256.721 614.137 256.721 584.669C256.721 554.932 256.454 549.146 254.854 549.146C253.787 549.146 251.653 551.165 250.186 553.721C247.119 558.565 238.317 567.177 235.25 568.253C233.65 568.792 233.65 569.464 235.117 572.155C236.45 574.712 236.717 588.706 236.45 634.589L236.05 693.793L229.115 694.197L222.047 694.6V684.509C222.047 676.435 221.647 674.283 220.047 674.283C218.98 674.283 217.246 676.032 216.179 678.05C214.179 681.952 205.777 690.295 201.376 692.717C199.376 693.928 199.376 694.6 200.709 697.157C203.243 701.866 201.776 715.456 198.442 718.82C194.841 722.588 187.907 722.588 184.306 718.82C181.505 715.995 181.372 714.918 180.972 678.992L180.572 642.124L192.974 641.72L205.377 641.317V631.225V621.133L194.708 620.999C188.84 620.999 183.239 620.864 182.439 620.73C181.105 620.461 180.705 612.253 180.705 584.804C180.705 554.26 180.438 549.146 178.705 549.146C177.638 549.146 175.771 551.03 174.57 553.452C171.77 558.834 164.568 566.1 160.701 567.311C158.567 567.984 158.167 568.792 158.967 570.406C159.501 571.752 160.034 599.874 160.034 633.243V693.793L153.766 694.197L147.365 694.6V644.142C147.365 613.195 146.831 593.415 146.031 592.877C145.364 592.473 143.364 594.492 141.497 597.317C138.429 602.43 127.894 612.387 125.893 612.387C125.36 612.387 125.227 614.406 125.627 616.962C126.293 621.268 126.16 621.537 121.226 622.479C108.023 624.901 94.42 636.069 87.752 649.794C84.4179 656.79 84.0178 659.212 83.351 675.628L82.6842 693.793L75.7494 694.197L68.6812 694.6V684.509C68.6812 672.264 67.2143 671.457 60.9463 680.338C58.6791 683.701 54.4116 688.007 51.4776 690.026C47.7435 692.582 46.4099 694.466 46.9433 695.811C47.4768 696.888 48.0102 701.194 48.2769 705.23C48.8104 713.976 45.343 721.242 40.4086 721.511C34.9408 721.781 33.3404 721.242 30.4065 717.878C27.3391 714.515 27.3391 713.976 27.3391 678.319V642.124L39.7418 641.72L52.011 641.317V631.225V621.133L43.3425 620.999C38.5415 620.864 33.0737 620.73 31.0733 620.595L27.3391 620.461V584.804C27.3391 545.514 26.9391 544.033 20.1376 554.798ZM126.027 667.555V694.466H114.691H103.355V679.261C103.355 663.653 104.956 657.732 110.957 650.466C112.824 648.179 124.026 640.778 125.76 640.644C125.893 640.644 126.027 652.754 126.027 667.555ZM349.407 645.353L352.742 648.583V682.087C352.742 712.093 352.475 715.995 350.474 718.417C346.74 722.857 339.539 722.857 335.404 718.417C332.871 715.591 332.737 713.842 332.737 682.087V648.583L336.071 645.353C337.805 643.47 340.872 641.989 342.739 641.989C344.606 641.989 347.674 643.47 349.407 645.353ZM425.424 645.353L428.758 648.583V681.01C428.758 706.845 428.358 714.245 426.757 717.206C423.29 724.202 413.554 723.395 409.687 715.995C407.553 711.823 407.42 707.787 407.686 679.934L408.087 648.448L411.821 645.219C416.622 641.048 421.289 641.048 425.424 645.353Z" fill="#8B5CF6"/>
<path d="M480.769 726.759V737.523H522.111H563.586L563.186 727.028L562.786 716.667L521.844 716.264L480.769 715.995V726.759Z" fill="#8B5CF6"/>
<path d="M1063.56 726.759V737.523H1104.9H1146.38L1145.98 727.028L1145.58 716.667L1104.63 716.264L1063.56 715.995V726.759Z" fill="#8B5CF6"/>
</svg>
